M48
; DRILL file {KiCad 9.0.2} date 2025-07-31T17:55:36-0500
; FORMAT={-:-/ absolute / metric / decimal}
; #@! TF.CreationDate,2025-07-31T17:55:36-05:00
; #@! TF.GenerationSoftware,Kicad,Pcbnew,9.0.2
; #@! TF.FileFunction,NonPlated,1,2,NPTH
FMAT,2
METRIC
; #@! TA.AperFunction,NonPlated,NPTH,ComponentDrill
T1C1.700
; #@! TA.AperFunction,NonPlated,NPTH,ComponentDrill
T2C4.000
%
G90
G05
T1
X85.407Y-38.1
X85.407Y-57.15
X85.407Y-76.2
X85.407Y-95.25
X95.567Y-38.1
X95.567Y-57.15
X95.567Y-76.2
X95.567Y-95.25
X104.457Y-38.1
X104.457Y-57.15
X104.457Y-76.2
X104.457Y-95.25
X114.617Y-38.1
X114.617Y-57.15
X114.617Y-76.2
X114.617Y-95.25
X123.507Y-38.1
X123.507Y-57.15
X123.507Y-76.2
X123.507Y-95.25
X133.667Y-38.1
X133.667Y-57.15
X133.667Y-76.2
X133.667Y-95.25
T2
X90.487Y-38.1
X90.487Y-57.15
X90.487Y-76.2
X90.487Y-95.25
X109.537Y-38.1
X109.537Y-57.15
X109.537Y-76.2
X109.537Y-95.25
X128.588Y-38.1
X128.588Y-57.15
X128.588Y-76.2
X128.588Y-95.25
M30
