M48
; DRILL file {KiCad 9.0.2} date 2025-07-31T17:55:36-0500
; FORMAT={-:-/ absolute / metric / decimal}
; #@! TF.CreationDate,2025-07-31T17:55:36-05:00
; #@! TF.GenerationSoftware,Kicad,Pcbnew,9.0.2
; #@! TF.FileFunction,Plated,1,2,PTH
FMAT,2
METRIC
; #@! TA.AperFunction,Plated,PTH,ViaDrill
T1C0.300
; #@! TA.AperFunction,Plated,PTH,ComponentDrill
T2C0.800
; #@! TA.AperFunction,Plated,PTH,ComponentDrill
T3C0.889
; #@! TA.AperFunction,Plated,PTH,ComponentDrill
T4C1.000
; #@! TA.AperFunction,Plated,PTH,ComponentDrill
T5C1.500
%
G90
G05
T1
X97.2Y-103.9
X115.7Y-103.7
X136.6Y-100.1
X140.7Y-31.7
X142.1Y-61.3
X143.0Y-77.8
X144.9Y-96.4
X146.7Y-85.5
X148.8Y-87.9
X153.1Y-87.0
T2
X100.012Y-34.29
X100.012Y-38.1
X100.012Y-53.499
X100.012Y-57.309
X100.012Y-72.39
X100.012Y-76.2
X100.012Y-91.44
X100.012Y-95.25
X119.062Y-34.449
X119.062Y-38.259
X119.062Y-53.34
X119.062Y-57.15
X119.062Y-72.39
X119.062Y-76.2
X119.062Y-91.599
X119.062Y-95.409
X138.112Y-34.29
X138.112Y-38.1
X138.112Y-53.499
X138.112Y-57.309
X138.112Y-72.549
X138.112Y-76.359
X138.112Y-91.599
X138.112Y-95.409
T3
X150.661Y-75.38
X150.661Y-90.62
X153.201Y-75.38
X153.201Y-90.62
X155.742Y-75.38
X155.742Y-90.62
X158.281Y-75.38
X158.281Y-90.62
X160.821Y-75.38
X160.821Y-90.62
X163.362Y-75.38
X163.362Y-90.62
X165.901Y-75.38
X165.901Y-90.62
T4
X83.8Y-18.99
X83.8Y-21.53
X83.8Y-24.07
X83.8Y-26.61
X134.82Y-25.7
X137.36Y-25.7
X139.9Y-25.7
T5
X86.677Y-35.56
X86.677Y-54.61
X86.677Y-73.66
X86.677Y-92.71
X93.027Y-33.02
X93.027Y-52.07
X93.027Y-71.12
X93.027Y-90.17
X105.727Y-35.56
X105.727Y-54.61
X105.727Y-73.66
X105.727Y-92.71
X112.078Y-33.02
X112.078Y-52.07
X112.078Y-71.12
X112.078Y-90.17
X124.777Y-35.56
X124.777Y-54.61
X124.777Y-73.66
X124.777Y-92.71
X131.127Y-33.02
X131.127Y-52.07
X131.127Y-71.12
X131.127Y-90.17
M30
