%TF.GenerationSoftware,KiCad,Pcbnew,9.0.2*%
%TF.CreationDate,2025-07-31T17:55:32-05:00*%
%TF.ProjectId,highway,68696768-7761-4792-9e6b-696361645f70,rev?*%
%TF.SameCoordinates,Original*%
%TF.FileFunction,Soldermask,Bot*%
%TF.FilePolarity,Negative*%
%FSLAX46Y46*%
G04 Gerber Fmt 4.6, Leading zero omitted, Abs format (unit mm)*
G04 Created by KiCad (PCBNEW 9.0.2) date 2025-07-31 17:55:32*
%MOMM*%
%LPD*%
G01*
G04 APERTURE LIST*
G04 Aperture macros list*
%AMRoundRect*
0 Rectangle with rounded corners*
0 $1 Rounding radius*
0 $2 $3 $4 $5 $6 $7 $8 $9 X,Y pos of 4 corners*
0 Add a 4 corners polygon primitive as box body*
4,1,4,$2,$3,$4,$5,$6,$7,$8,$9,$2,$3,0*
0 Add four circle primitives for the rounded corners*
1,1,$1+$1,$2,$3*
1,1,$1+$1,$4,$5*
1,1,$1+$1,$6,$7*
1,1,$1+$1,$8,$9*
0 Add four rect primitives between the rounded corners*
20,1,$1+$1,$2,$3,$4,$5,0*
20,1,$1+$1,$4,$5,$6,$7,0*
20,1,$1+$1,$6,$7,$8,$9,0*
20,1,$1+$1,$8,$9,$2,$3,0*%
G04 Aperture macros list end*
%ADD10C,1.700000*%
%ADD11C,4.000000*%
%ADD12C,2.200000*%
%ADD13R,1.700000X1.700000*%
%ADD14C,1.524000*%
%ADD15RoundRect,0.250000X0.550000X-0.550000X0.550000X0.550000X-0.550000X0.550000X-0.550000X-0.550000X0*%
%ADD16C,1.600000*%
G04 APERTURE END LIST*
D10*
%TO.C,SW5*%
X104457500Y-57150000D03*
D11*
X109537500Y-57150000D03*
D10*
X114617500Y-57150000D03*
D12*
X112077500Y-52070000D03*
X105727500Y-54610000D03*
%TD*%
D10*
%TO.C,SW12*%
X123507500Y-95250000D03*
D11*
X128587500Y-95250000D03*
D10*
X133667500Y-95250000D03*
D12*
X131127500Y-90170000D03*
X124777500Y-92710000D03*
%TD*%
D13*
%TO.C,motion1*%
X134820000Y-25700000D03*
D10*
X137360000Y-25700000D03*
X139900000Y-25700000D03*
%TD*%
%TO.C,SW10*%
X85407500Y-95250000D03*
D11*
X90487500Y-95250000D03*
D10*
X95567500Y-95250000D03*
D12*
X93027500Y-90170000D03*
X86677500Y-92710000D03*
%TD*%
D10*
%TO.C,SW6*%
X123507500Y-57150000D03*
D11*
X128587500Y-57150000D03*
D10*
X133667500Y-57150000D03*
D12*
X131127500Y-52070000D03*
X124777500Y-54610000D03*
%TD*%
D10*
%TO.C,SW2*%
X104457500Y-38100000D03*
D11*
X109537500Y-38100000D03*
D10*
X114617500Y-38100000D03*
D12*
X112077500Y-33020000D03*
X105727500Y-35560000D03*
%TD*%
D10*
%TO.C,SW4*%
X85407500Y-57150000D03*
D11*
X90487500Y-57150000D03*
D10*
X95567500Y-57150000D03*
D12*
X93027500Y-52070000D03*
X86677500Y-54610000D03*
%TD*%
D10*
%TO.C,SW9*%
X123507500Y-76200000D03*
D11*
X128587500Y-76200000D03*
D10*
X133667500Y-76200000D03*
D12*
X131127500Y-71120000D03*
X124777500Y-73660000D03*
%TD*%
D10*
%TO.C,SW1*%
X85407500Y-38100000D03*
D11*
X90487500Y-38100000D03*
D10*
X95567500Y-38100000D03*
D12*
X93027500Y-33020000D03*
X86677500Y-35560000D03*
%TD*%
D10*
%TO.C,SW7*%
X85407500Y-76200000D03*
D11*
X90487500Y-76200000D03*
D10*
X95567500Y-76200000D03*
D12*
X93027500Y-71120000D03*
X86677500Y-73660000D03*
%TD*%
D10*
%TO.C,SW3*%
X123507500Y-38100000D03*
D11*
X128587500Y-38100000D03*
D10*
X133667500Y-38100000D03*
D12*
X131127500Y-33020000D03*
X124777500Y-35560000D03*
%TD*%
D10*
%TO.C,SW8*%
X104457500Y-76200000D03*
D11*
X109537500Y-76200000D03*
D10*
X114617500Y-76200000D03*
D12*
X112077500Y-71120000D03*
X105727500Y-73660000D03*
%TD*%
D14*
%TO.C,U1*%
X165901500Y-75380000D03*
X163361500Y-75380000D03*
X160821500Y-75380000D03*
X158281500Y-75380000D03*
X155741500Y-75380000D03*
X153201500Y-75380000D03*
X150661500Y-75380000D03*
X150661500Y-90620000D03*
X153201500Y-90620000D03*
X155741500Y-90620000D03*
X158281500Y-90620000D03*
X160821500Y-90620000D03*
X163361500Y-90620000D03*
X165901500Y-90620000D03*
%TD*%
D10*
%TO.C,SW11*%
X104457500Y-95250000D03*
D11*
X109537500Y-95250000D03*
D10*
X114617500Y-95250000D03*
D12*
X112077500Y-90170000D03*
X105727500Y-92710000D03*
%TD*%
D13*
%TO.C,OLED1*%
X83800000Y-18990000D03*
D10*
X83800000Y-21530000D03*
X83800000Y-24070000D03*
X83800000Y-26610000D03*
%TD*%
D15*
%TO.C,D8*%
X119062500Y-76200000D03*
D16*
X119062500Y-72390000D03*
%TD*%
D15*
%TO.C,D3*%
X138112500Y-38100000D03*
D16*
X138112500Y-34290000D03*
%TD*%
D15*
%TO.C,D1*%
X100012500Y-38100000D03*
D16*
X100012500Y-34290000D03*
%TD*%
D15*
%TO.C,D6*%
X138112500Y-57308750D03*
D16*
X138112500Y-53498750D03*
%TD*%
D15*
%TO.C,D4*%
X100012500Y-57308750D03*
D16*
X100012500Y-53498750D03*
%TD*%
D15*
%TO.C,D2*%
X119062500Y-38258750D03*
D16*
X119062500Y-34448750D03*
%TD*%
D15*
%TO.C,D7*%
X100012500Y-76200000D03*
D16*
X100012500Y-72390000D03*
%TD*%
D15*
%TO.C,D10*%
X100012500Y-95250000D03*
D16*
X100012500Y-91440000D03*
%TD*%
D15*
%TO.C,D12*%
X138112500Y-95408750D03*
D16*
X138112500Y-91598750D03*
%TD*%
D15*
%TO.C,D5*%
X119062500Y-57150000D03*
D16*
X119062500Y-53340000D03*
%TD*%
D15*
%TO.C,D11*%
X119062500Y-95408750D03*
D16*
X119062500Y-91598750D03*
%TD*%
D15*
%TO.C,D9*%
X138112500Y-76358750D03*
D16*
X138112500Y-72548750D03*
%TD*%
M02*
