%TF.GenerationSoftware,KiCad,Pcbnew,9.0.2*%
%TF.CreationDate,2025-07-31T17:55:32-05:00*%
%TF.ProjectId,highway,68696768-7761-4792-9e6b-696361645f70,rev?*%
%TF.SameCoordinates,Original*%
%TF.FileFunction,Legend,Bot*%
%TF.FilePolarity,Positive*%
%FSLAX46Y46*%
G04 Gerber Fmt 4.6, Leading zero omitted, Abs format (unit mm)*
G04 Created by KiCad (PCBNEW 9.0.2) date 2025-07-31 17:55:32*
%MOMM*%
%LPD*%
G01*
G04 APERTURE LIST*
%ADD10C,0.150000*%
%ADD11C,0.000000*%
%ADD12C,0.120000*%
G04 APERTURE END LIST*
D10*
X121843690Y-73556905D02*
X120843690Y-73556905D01*
X120843690Y-73556905D02*
X120843690Y-73795000D01*
X120843690Y-73795000D02*
X120891309Y-73937857D01*
X120891309Y-73937857D02*
X120986547Y-74033095D01*
X120986547Y-74033095D02*
X121081785Y-74080714D01*
X121081785Y-74080714D02*
X121272261Y-74128333D01*
X121272261Y-74128333D02*
X121415118Y-74128333D01*
X121415118Y-74128333D02*
X121605594Y-74080714D01*
X121605594Y-74080714D02*
X121700832Y-74033095D01*
X121700832Y-74033095D02*
X121796071Y-73937857D01*
X121796071Y-73937857D02*
X121843690Y-73795000D01*
X121843690Y-73795000D02*
X121843690Y-73556905D01*
X121272261Y-74699762D02*
X121224642Y-74604524D01*
X121224642Y-74604524D02*
X121177023Y-74556905D01*
X121177023Y-74556905D02*
X121081785Y-74509286D01*
X121081785Y-74509286D02*
X121034166Y-74509286D01*
X121034166Y-74509286D02*
X120938928Y-74556905D01*
X120938928Y-74556905D02*
X120891309Y-74604524D01*
X120891309Y-74604524D02*
X120843690Y-74699762D01*
X120843690Y-74699762D02*
X120843690Y-74890238D01*
X120843690Y-74890238D02*
X120891309Y-74985476D01*
X120891309Y-74985476D02*
X120938928Y-75033095D01*
X120938928Y-75033095D02*
X121034166Y-75080714D01*
X121034166Y-75080714D02*
X121081785Y-75080714D01*
X121081785Y-75080714D02*
X121177023Y-75033095D01*
X121177023Y-75033095D02*
X121224642Y-74985476D01*
X121224642Y-74985476D02*
X121272261Y-74890238D01*
X121272261Y-74890238D02*
X121272261Y-74699762D01*
X121272261Y-74699762D02*
X121319880Y-74604524D01*
X121319880Y-74604524D02*
X121367499Y-74556905D01*
X121367499Y-74556905D02*
X121462737Y-74509286D01*
X121462737Y-74509286D02*
X121653213Y-74509286D01*
X121653213Y-74509286D02*
X121748451Y-74556905D01*
X121748451Y-74556905D02*
X121796071Y-74604524D01*
X121796071Y-74604524D02*
X121843690Y-74699762D01*
X121843690Y-74699762D02*
X121843690Y-74890238D01*
X121843690Y-74890238D02*
X121796071Y-74985476D01*
X121796071Y-74985476D02*
X121748451Y-75033095D01*
X121748451Y-75033095D02*
X121653213Y-75080714D01*
X121653213Y-75080714D02*
X121462737Y-75080714D01*
X121462737Y-75080714D02*
X121367499Y-75033095D01*
X121367499Y-75033095D02*
X121319880Y-74985476D01*
X121319880Y-74985476D02*
X121272261Y-74890238D01*
X118431604Y-73651905D02*
X118431604Y-74128095D01*
X118717319Y-73556667D02*
X117717319Y-73890000D01*
X117717319Y-73890000D02*
X118717319Y-74223333D01*
X140893690Y-35456905D02*
X139893690Y-35456905D01*
X139893690Y-35456905D02*
X139893690Y-35695000D01*
X139893690Y-35695000D02*
X139941309Y-35837857D01*
X139941309Y-35837857D02*
X140036547Y-35933095D01*
X140036547Y-35933095D02*
X140131785Y-35980714D01*
X140131785Y-35980714D02*
X140322261Y-36028333D01*
X140322261Y-36028333D02*
X140465118Y-36028333D01*
X140465118Y-36028333D02*
X140655594Y-35980714D01*
X140655594Y-35980714D02*
X140750832Y-35933095D01*
X140750832Y-35933095D02*
X140846071Y-35837857D01*
X140846071Y-35837857D02*
X140893690Y-35695000D01*
X140893690Y-35695000D02*
X140893690Y-35456905D01*
X139893690Y-36361667D02*
X139893690Y-36980714D01*
X139893690Y-36980714D02*
X140274642Y-36647381D01*
X140274642Y-36647381D02*
X140274642Y-36790238D01*
X140274642Y-36790238D02*
X140322261Y-36885476D01*
X140322261Y-36885476D02*
X140369880Y-36933095D01*
X140369880Y-36933095D02*
X140465118Y-36980714D01*
X140465118Y-36980714D02*
X140703213Y-36980714D01*
X140703213Y-36980714D02*
X140798451Y-36933095D01*
X140798451Y-36933095D02*
X140846071Y-36885476D01*
X140846071Y-36885476D02*
X140893690Y-36790238D01*
X140893690Y-36790238D02*
X140893690Y-36504524D01*
X140893690Y-36504524D02*
X140846071Y-36409286D01*
X140846071Y-36409286D02*
X140798451Y-36361667D01*
X137481604Y-35551905D02*
X137481604Y-36028095D01*
X137767319Y-35456667D02*
X136767319Y-35790000D01*
X136767319Y-35790000D02*
X137767319Y-36123333D01*
X102793690Y-35456905D02*
X101793690Y-35456905D01*
X101793690Y-35456905D02*
X101793690Y-35695000D01*
X101793690Y-35695000D02*
X101841309Y-35837857D01*
X101841309Y-35837857D02*
X101936547Y-35933095D01*
X101936547Y-35933095D02*
X102031785Y-35980714D01*
X102031785Y-35980714D02*
X102222261Y-36028333D01*
X102222261Y-36028333D02*
X102365118Y-36028333D01*
X102365118Y-36028333D02*
X102555594Y-35980714D01*
X102555594Y-35980714D02*
X102650832Y-35933095D01*
X102650832Y-35933095D02*
X102746071Y-35837857D01*
X102746071Y-35837857D02*
X102793690Y-35695000D01*
X102793690Y-35695000D02*
X102793690Y-35456905D01*
X102793690Y-36980714D02*
X102793690Y-36409286D01*
X102793690Y-36695000D02*
X101793690Y-36695000D01*
X101793690Y-36695000D02*
X101936547Y-36599762D01*
X101936547Y-36599762D02*
X102031785Y-36504524D01*
X102031785Y-36504524D02*
X102079404Y-36409286D01*
X99381604Y-35551905D02*
X99381604Y-36028095D01*
X99667319Y-35456667D02*
X98667319Y-35790000D01*
X98667319Y-35790000D02*
X99667319Y-36123333D01*
X140893690Y-54665655D02*
X139893690Y-54665655D01*
X139893690Y-54665655D02*
X139893690Y-54903750D01*
X139893690Y-54903750D02*
X139941309Y-55046607D01*
X139941309Y-55046607D02*
X140036547Y-55141845D01*
X140036547Y-55141845D02*
X140131785Y-55189464D01*
X140131785Y-55189464D02*
X140322261Y-55237083D01*
X140322261Y-55237083D02*
X140465118Y-55237083D01*
X140465118Y-55237083D02*
X140655594Y-55189464D01*
X140655594Y-55189464D02*
X140750832Y-55141845D01*
X140750832Y-55141845D02*
X140846071Y-55046607D01*
X140846071Y-55046607D02*
X140893690Y-54903750D01*
X140893690Y-54903750D02*
X140893690Y-54665655D01*
X139893690Y-56094226D02*
X139893690Y-55903750D01*
X139893690Y-55903750D02*
X139941309Y-55808512D01*
X139941309Y-55808512D02*
X139988928Y-55760893D01*
X139988928Y-55760893D02*
X140131785Y-55665655D01*
X140131785Y-55665655D02*
X140322261Y-55618036D01*
X140322261Y-55618036D02*
X140703213Y-55618036D01*
X140703213Y-55618036D02*
X140798451Y-55665655D01*
X140798451Y-55665655D02*
X140846071Y-55713274D01*
X140846071Y-55713274D02*
X140893690Y-55808512D01*
X140893690Y-55808512D02*
X140893690Y-55998988D01*
X140893690Y-55998988D02*
X140846071Y-56094226D01*
X140846071Y-56094226D02*
X140798451Y-56141845D01*
X140798451Y-56141845D02*
X140703213Y-56189464D01*
X140703213Y-56189464D02*
X140465118Y-56189464D01*
X140465118Y-56189464D02*
X140369880Y-56141845D01*
X140369880Y-56141845D02*
X140322261Y-56094226D01*
X140322261Y-56094226D02*
X140274642Y-55998988D01*
X140274642Y-55998988D02*
X140274642Y-55808512D01*
X140274642Y-55808512D02*
X140322261Y-55713274D01*
X140322261Y-55713274D02*
X140369880Y-55665655D01*
X140369880Y-55665655D02*
X140465118Y-55618036D01*
X137481604Y-54760655D02*
X137481604Y-55236845D01*
X137767319Y-54665417D02*
X136767319Y-54998750D01*
X136767319Y-54998750D02*
X137767319Y-55332083D01*
X102793690Y-54665655D02*
X101793690Y-54665655D01*
X101793690Y-54665655D02*
X101793690Y-54903750D01*
X101793690Y-54903750D02*
X101841309Y-55046607D01*
X101841309Y-55046607D02*
X101936547Y-55141845D01*
X101936547Y-55141845D02*
X102031785Y-55189464D01*
X102031785Y-55189464D02*
X102222261Y-55237083D01*
X102222261Y-55237083D02*
X102365118Y-55237083D01*
X102365118Y-55237083D02*
X102555594Y-55189464D01*
X102555594Y-55189464D02*
X102650832Y-55141845D01*
X102650832Y-55141845D02*
X102746071Y-55046607D01*
X102746071Y-55046607D02*
X102793690Y-54903750D01*
X102793690Y-54903750D02*
X102793690Y-54665655D01*
X102127023Y-56094226D02*
X102793690Y-56094226D01*
X101746071Y-55856131D02*
X102460356Y-55618036D01*
X102460356Y-55618036D02*
X102460356Y-56237083D01*
X99381604Y-54760655D02*
X99381604Y-55236845D01*
X99667319Y-54665417D02*
X98667319Y-54998750D01*
X98667319Y-54998750D02*
X99667319Y-55332083D01*
X121843690Y-35615655D02*
X120843690Y-35615655D01*
X120843690Y-35615655D02*
X120843690Y-35853750D01*
X120843690Y-35853750D02*
X120891309Y-35996607D01*
X120891309Y-35996607D02*
X120986547Y-36091845D01*
X120986547Y-36091845D02*
X121081785Y-36139464D01*
X121081785Y-36139464D02*
X121272261Y-36187083D01*
X121272261Y-36187083D02*
X121415118Y-36187083D01*
X121415118Y-36187083D02*
X121605594Y-36139464D01*
X121605594Y-36139464D02*
X121700832Y-36091845D01*
X121700832Y-36091845D02*
X121796071Y-35996607D01*
X121796071Y-35996607D02*
X121843690Y-35853750D01*
X121843690Y-35853750D02*
X121843690Y-35615655D01*
X120938928Y-36568036D02*
X120891309Y-36615655D01*
X120891309Y-36615655D02*
X120843690Y-36710893D01*
X120843690Y-36710893D02*
X120843690Y-36948988D01*
X120843690Y-36948988D02*
X120891309Y-37044226D01*
X120891309Y-37044226D02*
X120938928Y-37091845D01*
X120938928Y-37091845D02*
X121034166Y-37139464D01*
X121034166Y-37139464D02*
X121129404Y-37139464D01*
X121129404Y-37139464D02*
X121272261Y-37091845D01*
X121272261Y-37091845D02*
X121843690Y-36520417D01*
X121843690Y-36520417D02*
X121843690Y-37139464D01*
X118431604Y-35710655D02*
X118431604Y-36186845D01*
X118717319Y-35615417D02*
X117717319Y-35948750D01*
X117717319Y-35948750D02*
X118717319Y-36282083D01*
X102793690Y-73556905D02*
X101793690Y-73556905D01*
X101793690Y-73556905D02*
X101793690Y-73795000D01*
X101793690Y-73795000D02*
X101841309Y-73937857D01*
X101841309Y-73937857D02*
X101936547Y-74033095D01*
X101936547Y-74033095D02*
X102031785Y-74080714D01*
X102031785Y-74080714D02*
X102222261Y-74128333D01*
X102222261Y-74128333D02*
X102365118Y-74128333D01*
X102365118Y-74128333D02*
X102555594Y-74080714D01*
X102555594Y-74080714D02*
X102650832Y-74033095D01*
X102650832Y-74033095D02*
X102746071Y-73937857D01*
X102746071Y-73937857D02*
X102793690Y-73795000D01*
X102793690Y-73795000D02*
X102793690Y-73556905D01*
X101793690Y-74461667D02*
X101793690Y-75128333D01*
X101793690Y-75128333D02*
X102793690Y-74699762D01*
X99381604Y-73651905D02*
X99381604Y-74128095D01*
X99667319Y-73556667D02*
X98667319Y-73890000D01*
X98667319Y-73890000D02*
X99667319Y-74223333D01*
X102793690Y-92130714D02*
X101793690Y-92130714D01*
X101793690Y-92130714D02*
X101793690Y-92368809D01*
X101793690Y-92368809D02*
X101841309Y-92511666D01*
X101841309Y-92511666D02*
X101936547Y-92606904D01*
X101936547Y-92606904D02*
X102031785Y-92654523D01*
X102031785Y-92654523D02*
X102222261Y-92702142D01*
X102222261Y-92702142D02*
X102365118Y-92702142D01*
X102365118Y-92702142D02*
X102555594Y-92654523D01*
X102555594Y-92654523D02*
X102650832Y-92606904D01*
X102650832Y-92606904D02*
X102746071Y-92511666D01*
X102746071Y-92511666D02*
X102793690Y-92368809D01*
X102793690Y-92368809D02*
X102793690Y-92130714D01*
X102793690Y-93654523D02*
X102793690Y-93083095D01*
X102793690Y-93368809D02*
X101793690Y-93368809D01*
X101793690Y-93368809D02*
X101936547Y-93273571D01*
X101936547Y-93273571D02*
X102031785Y-93178333D01*
X102031785Y-93178333D02*
X102079404Y-93083095D01*
X101793690Y-94273571D02*
X101793690Y-94368809D01*
X101793690Y-94368809D02*
X101841309Y-94464047D01*
X101841309Y-94464047D02*
X101888928Y-94511666D01*
X101888928Y-94511666D02*
X101984166Y-94559285D01*
X101984166Y-94559285D02*
X102174642Y-94606904D01*
X102174642Y-94606904D02*
X102412737Y-94606904D01*
X102412737Y-94606904D02*
X102603213Y-94559285D01*
X102603213Y-94559285D02*
X102698451Y-94511666D01*
X102698451Y-94511666D02*
X102746071Y-94464047D01*
X102746071Y-94464047D02*
X102793690Y-94368809D01*
X102793690Y-94368809D02*
X102793690Y-94273571D01*
X102793690Y-94273571D02*
X102746071Y-94178333D01*
X102746071Y-94178333D02*
X102698451Y-94130714D01*
X102698451Y-94130714D02*
X102603213Y-94083095D01*
X102603213Y-94083095D02*
X102412737Y-94035476D01*
X102412737Y-94035476D02*
X102174642Y-94035476D01*
X102174642Y-94035476D02*
X101984166Y-94083095D01*
X101984166Y-94083095D02*
X101888928Y-94130714D01*
X101888928Y-94130714D02*
X101841309Y-94178333D01*
X101841309Y-94178333D02*
X101793690Y-94273571D01*
X99381604Y-92701905D02*
X99381604Y-93178095D01*
X99667319Y-92606667D02*
X98667319Y-92940000D01*
X98667319Y-92940000D02*
X99667319Y-93273333D01*
X140893690Y-92289464D02*
X139893690Y-92289464D01*
X139893690Y-92289464D02*
X139893690Y-92527559D01*
X139893690Y-92527559D02*
X139941309Y-92670416D01*
X139941309Y-92670416D02*
X140036547Y-92765654D01*
X140036547Y-92765654D02*
X140131785Y-92813273D01*
X140131785Y-92813273D02*
X140322261Y-92860892D01*
X140322261Y-92860892D02*
X140465118Y-92860892D01*
X140465118Y-92860892D02*
X140655594Y-92813273D01*
X140655594Y-92813273D02*
X140750832Y-92765654D01*
X140750832Y-92765654D02*
X140846071Y-92670416D01*
X140846071Y-92670416D02*
X140893690Y-92527559D01*
X140893690Y-92527559D02*
X140893690Y-92289464D01*
X140893690Y-93813273D02*
X140893690Y-93241845D01*
X140893690Y-93527559D02*
X139893690Y-93527559D01*
X139893690Y-93527559D02*
X140036547Y-93432321D01*
X140036547Y-93432321D02*
X140131785Y-93337083D01*
X140131785Y-93337083D02*
X140179404Y-93241845D01*
X139988928Y-94194226D02*
X139941309Y-94241845D01*
X139941309Y-94241845D02*
X139893690Y-94337083D01*
X139893690Y-94337083D02*
X139893690Y-94575178D01*
X139893690Y-94575178D02*
X139941309Y-94670416D01*
X139941309Y-94670416D02*
X139988928Y-94718035D01*
X139988928Y-94718035D02*
X140084166Y-94765654D01*
X140084166Y-94765654D02*
X140179404Y-94765654D01*
X140179404Y-94765654D02*
X140322261Y-94718035D01*
X140322261Y-94718035D02*
X140893690Y-94146607D01*
X140893690Y-94146607D02*
X140893690Y-94765654D01*
X137481604Y-92860655D02*
X137481604Y-93336845D01*
X137767319Y-92765417D02*
X136767319Y-93098750D01*
X136767319Y-93098750D02*
X137767319Y-93432083D01*
X121843690Y-54506905D02*
X120843690Y-54506905D01*
X120843690Y-54506905D02*
X120843690Y-54745000D01*
X120843690Y-54745000D02*
X120891309Y-54887857D01*
X120891309Y-54887857D02*
X120986547Y-54983095D01*
X120986547Y-54983095D02*
X121081785Y-55030714D01*
X121081785Y-55030714D02*
X121272261Y-55078333D01*
X121272261Y-55078333D02*
X121415118Y-55078333D01*
X121415118Y-55078333D02*
X121605594Y-55030714D01*
X121605594Y-55030714D02*
X121700832Y-54983095D01*
X121700832Y-54983095D02*
X121796071Y-54887857D01*
X121796071Y-54887857D02*
X121843690Y-54745000D01*
X121843690Y-54745000D02*
X121843690Y-54506905D01*
X120843690Y-55983095D02*
X120843690Y-55506905D01*
X120843690Y-55506905D02*
X121319880Y-55459286D01*
X121319880Y-55459286D02*
X121272261Y-55506905D01*
X121272261Y-55506905D02*
X121224642Y-55602143D01*
X121224642Y-55602143D02*
X121224642Y-55840238D01*
X121224642Y-55840238D02*
X121272261Y-55935476D01*
X121272261Y-55935476D02*
X121319880Y-55983095D01*
X121319880Y-55983095D02*
X121415118Y-56030714D01*
X121415118Y-56030714D02*
X121653213Y-56030714D01*
X121653213Y-56030714D02*
X121748451Y-55983095D01*
X121748451Y-55983095D02*
X121796071Y-55935476D01*
X121796071Y-55935476D02*
X121843690Y-55840238D01*
X121843690Y-55840238D02*
X121843690Y-55602143D01*
X121843690Y-55602143D02*
X121796071Y-55506905D01*
X121796071Y-55506905D02*
X121748451Y-55459286D01*
X118431604Y-54601905D02*
X118431604Y-55078095D01*
X118717319Y-54506667D02*
X117717319Y-54840000D01*
X117717319Y-54840000D02*
X118717319Y-55173333D01*
X121843690Y-92289464D02*
X120843690Y-92289464D01*
X120843690Y-92289464D02*
X120843690Y-92527559D01*
X120843690Y-92527559D02*
X120891309Y-92670416D01*
X120891309Y-92670416D02*
X120986547Y-92765654D01*
X120986547Y-92765654D02*
X121081785Y-92813273D01*
X121081785Y-92813273D02*
X121272261Y-92860892D01*
X121272261Y-92860892D02*
X121415118Y-92860892D01*
X121415118Y-92860892D02*
X121605594Y-92813273D01*
X121605594Y-92813273D02*
X121700832Y-92765654D01*
X121700832Y-92765654D02*
X121796071Y-92670416D01*
X121796071Y-92670416D02*
X121843690Y-92527559D01*
X121843690Y-92527559D02*
X121843690Y-92289464D01*
X121843690Y-93813273D02*
X121843690Y-93241845D01*
X121843690Y-93527559D02*
X120843690Y-93527559D01*
X120843690Y-93527559D02*
X120986547Y-93432321D01*
X120986547Y-93432321D02*
X121081785Y-93337083D01*
X121081785Y-93337083D02*
X121129404Y-93241845D01*
X121843690Y-94765654D02*
X121843690Y-94194226D01*
X121843690Y-94479940D02*
X120843690Y-94479940D01*
X120843690Y-94479940D02*
X120986547Y-94384702D01*
X120986547Y-94384702D02*
X121081785Y-94289464D01*
X121081785Y-94289464D02*
X121129404Y-94194226D01*
X118431604Y-92860655D02*
X118431604Y-93336845D01*
X118717319Y-92765417D02*
X117717319Y-93098750D01*
X117717319Y-93098750D02*
X118717319Y-93432083D01*
X140893690Y-73715655D02*
X139893690Y-73715655D01*
X139893690Y-73715655D02*
X139893690Y-73953750D01*
X139893690Y-73953750D02*
X139941309Y-74096607D01*
X139941309Y-74096607D02*
X140036547Y-74191845D01*
X140036547Y-74191845D02*
X140131785Y-74239464D01*
X140131785Y-74239464D02*
X140322261Y-74287083D01*
X140322261Y-74287083D02*
X140465118Y-74287083D01*
X140465118Y-74287083D02*
X140655594Y-74239464D01*
X140655594Y-74239464D02*
X140750832Y-74191845D01*
X140750832Y-74191845D02*
X140846071Y-74096607D01*
X140846071Y-74096607D02*
X140893690Y-73953750D01*
X140893690Y-73953750D02*
X140893690Y-73715655D01*
X140893690Y-74763274D02*
X140893690Y-74953750D01*
X140893690Y-74953750D02*
X140846071Y-75048988D01*
X140846071Y-75048988D02*
X140798451Y-75096607D01*
X140798451Y-75096607D02*
X140655594Y-75191845D01*
X140655594Y-75191845D02*
X140465118Y-75239464D01*
X140465118Y-75239464D02*
X140084166Y-75239464D01*
X140084166Y-75239464D02*
X139988928Y-75191845D01*
X139988928Y-75191845D02*
X139941309Y-75144226D01*
X139941309Y-75144226D02*
X139893690Y-75048988D01*
X139893690Y-75048988D02*
X139893690Y-74858512D01*
X139893690Y-74858512D02*
X139941309Y-74763274D01*
X139941309Y-74763274D02*
X139988928Y-74715655D01*
X139988928Y-74715655D02*
X140084166Y-74668036D01*
X140084166Y-74668036D02*
X140322261Y-74668036D01*
X140322261Y-74668036D02*
X140417499Y-74715655D01*
X140417499Y-74715655D02*
X140465118Y-74763274D01*
X140465118Y-74763274D02*
X140512737Y-74858512D01*
X140512737Y-74858512D02*
X140512737Y-75048988D01*
X140512737Y-75048988D02*
X140465118Y-75144226D01*
X140465118Y-75144226D02*
X140417499Y-75191845D01*
X140417499Y-75191845D02*
X140322261Y-75239464D01*
X137481604Y-73810655D02*
X137481604Y-74286845D01*
X137767319Y-73715417D02*
X136767319Y-74048750D01*
X136767319Y-74048750D02*
X137767319Y-74382083D01*
D11*
%TO.C,G\u002A\u002A\u002A*%
G36*
X145413747Y-36026465D02*
G01*
X145501656Y-36054045D01*
X145576394Y-36103730D01*
X145579232Y-36182890D01*
X145519453Y-36317046D01*
X145444988Y-36461045D01*
X145302090Y-36376633D01*
X145274889Y-36359644D01*
X145156662Y-36249014D01*
X145117562Y-36141163D01*
X145151462Y-36055309D01*
X145252233Y-36010670D01*
X145413747Y-36026465D01*
G37*
G36*
X155431304Y-35918116D02*
G01*
X155436454Y-35925437D01*
X155558511Y-36104693D01*
X155624703Y-36223100D01*
X155637951Y-36295844D01*
X155601176Y-36338109D01*
X155517301Y-36365081D01*
X155400618Y-36389608D01*
X155312993Y-36403982D01*
X155285049Y-36398887D01*
X155235219Y-36322158D01*
X155210872Y-36157416D01*
X155212785Y-35908505D01*
X155227567Y-35628640D01*
X155431304Y-35918116D01*
G37*
G36*
X145088314Y-36677954D02*
G01*
X145224066Y-36717251D01*
X145269720Y-36736692D01*
X145351519Y-36785170D01*
X145371902Y-36851256D01*
X145349485Y-36972897D01*
X145341583Y-37007487D01*
X145316163Y-37127910D01*
X145305335Y-37195039D01*
X145271945Y-37203641D01*
X145182404Y-37178693D01*
X145066512Y-37130609D01*
X144954198Y-37071913D01*
X144875394Y-37015131D01*
X144848471Y-36976235D01*
X144834022Y-36861467D01*
X144875911Y-36746762D01*
X144962728Y-36676374D01*
X144974993Y-36673361D01*
X145088314Y-36677954D01*
G37*
G36*
X160912127Y-36908060D02*
G01*
X161045766Y-37237475D01*
X161158980Y-37515970D01*
X161247844Y-37733885D01*
X161308432Y-37881556D01*
X161336822Y-37949322D01*
X161366736Y-38008986D01*
X161397485Y-38022733D01*
X161443606Y-37973472D01*
X161523065Y-37851795D01*
X161681591Y-37641139D01*
X161961590Y-37398158D01*
X162302566Y-37228735D01*
X162707038Y-37131338D01*
X162935890Y-37090262D01*
X163302113Y-37002046D01*
X163726637Y-36880138D01*
X164193499Y-36729968D01*
X164686732Y-36556965D01*
X165190373Y-36366559D01*
X165688457Y-36164180D01*
X166165020Y-35955258D01*
X166800691Y-35648999D01*
X167556614Y-35235363D01*
X168289735Y-34774470D01*
X168796769Y-34435171D01*
X168812248Y-34609767D01*
X168806797Y-34745878D01*
X168763959Y-34824562D01*
X168759477Y-34827396D01*
X168686121Y-34874170D01*
X168551551Y-34960228D01*
X168373329Y-35074335D01*
X168169012Y-35205254D01*
X167872773Y-35388327D01*
X167225699Y-35750973D01*
X166515930Y-36105817D01*
X165765767Y-36442571D01*
X164997510Y-36750949D01*
X164233461Y-37020664D01*
X164150958Y-37047675D01*
X163920539Y-37123201D01*
X163727105Y-37186729D01*
X163588926Y-37232254D01*
X163524272Y-37253770D01*
X163519092Y-37266205D01*
X163554689Y-37333577D01*
X163642211Y-37444245D01*
X163769817Y-37582360D01*
X163868664Y-37690233D01*
X164122629Y-38037962D01*
X164361926Y-38473287D01*
X164587496Y-38998299D01*
X164800276Y-39615089D01*
X165001205Y-40325747D01*
X165033187Y-40453042D01*
X165166599Y-41082325D01*
X165250420Y-41672716D01*
X165284802Y-42216794D01*
X165281229Y-42334331D01*
X165269894Y-42707142D01*
X165205849Y-43136338D01*
X165092816Y-43496964D01*
X164930947Y-43781601D01*
X164798315Y-43955492D01*
X165179861Y-43920945D01*
X165471884Y-43888968D01*
X166052596Y-43794969D01*
X166629225Y-43664223D01*
X167183344Y-43502420D01*
X167696524Y-43315252D01*
X168150338Y-43108408D01*
X168526359Y-42887578D01*
X168820913Y-42686517D01*
X168820913Y-42877732D01*
X168820340Y-42926201D01*
X168808300Y-43013272D01*
X168766539Y-43080525D01*
X168676846Y-43150246D01*
X168521011Y-43244715D01*
X168185220Y-43422827D01*
X167650466Y-43650996D01*
X167054981Y-43851201D01*
X166418617Y-44017739D01*
X165761226Y-44144903D01*
X165102663Y-44226990D01*
X165006369Y-44235449D01*
X164706020Y-44260022D01*
X164478749Y-44272684D01*
X164306434Y-44271535D01*
X164170953Y-44254674D01*
X164054182Y-44220200D01*
X163937999Y-44166212D01*
X163804282Y-44090809D01*
X163747805Y-44056899D01*
X163459821Y-43848411D01*
X163195420Y-43588078D01*
X162932451Y-43254658D01*
X162859701Y-43153644D01*
X162791650Y-43061014D01*
X162763436Y-43025285D01*
X162762371Y-43029690D01*
X162759574Y-43095696D01*
X162758452Y-43215719D01*
X162757273Y-43250834D01*
X162698912Y-43448952D01*
X162558747Y-43604886D01*
X162345267Y-43708511D01*
X162161471Y-43728529D01*
X161952199Y-43668739D01*
X161761559Y-43526686D01*
X161603597Y-43309918D01*
X161560979Y-43228363D01*
X161505334Y-43088227D01*
X161484859Y-42946536D01*
X161488837Y-42797463D01*
X161770904Y-42797463D01*
X161773524Y-42859215D01*
X161810380Y-43053757D01*
X161879974Y-43228582D01*
X161968471Y-43345326D01*
X162058940Y-43403727D01*
X162213253Y-43431967D01*
X162362166Y-43364253D01*
X162428401Y-43303264D01*
X162467089Y-43215686D01*
X162461006Y-43081367D01*
X162452859Y-42973483D01*
X162479444Y-42878927D01*
X162563587Y-42795539D01*
X162586283Y-42779301D01*
X162731212Y-42708552D01*
X162894864Y-42663594D01*
X163003422Y-42646206D01*
X163151261Y-42617324D01*
X163225238Y-42589261D01*
X163239917Y-42554754D01*
X163209863Y-42506543D01*
X163193783Y-42489561D01*
X163078108Y-42407463D01*
X162909174Y-42318850D01*
X162719514Y-42237941D01*
X162541663Y-42178959D01*
X162408154Y-42156122D01*
X162337856Y-42160077D01*
X162115987Y-42228779D01*
X161935987Y-42369536D01*
X161815184Y-42564911D01*
X161770904Y-42797463D01*
X161488837Y-42797463D01*
X161489932Y-42756440D01*
X161498826Y-42654037D01*
X161540534Y-42451106D01*
X161616007Y-42303945D01*
X161631364Y-42282756D01*
X161695723Y-42182420D01*
X161721189Y-42121822D01*
X161715289Y-42109928D01*
X161649821Y-42059471D01*
X161535479Y-41998725D01*
X161406516Y-41915790D01*
X161252857Y-41734527D01*
X161147527Y-41503277D01*
X161096980Y-41245257D01*
X161100643Y-41155638D01*
X161384592Y-41155638D01*
X161387213Y-41217390D01*
X161424068Y-41411932D01*
X161493662Y-41586757D01*
X161582160Y-41703500D01*
X161672629Y-41761902D01*
X161826941Y-41790142D01*
X161975854Y-41722428D01*
X162042089Y-41661439D01*
X162065306Y-41608883D01*
X162399948Y-41608883D01*
X162403870Y-41677965D01*
X162427791Y-41789967D01*
X162448350Y-41827679D01*
X162503478Y-41866350D01*
X162514630Y-41862366D01*
X162524074Y-41803796D01*
X162497886Y-41698539D01*
X162442396Y-41576616D01*
X162435217Y-41564370D01*
X162408074Y-41541998D01*
X162399948Y-41608883D01*
X162065306Y-41608883D01*
X162080777Y-41573860D01*
X162074694Y-41439542D01*
X162072209Y-41406634D01*
X162360508Y-41406634D01*
X162366287Y-41463942D01*
X162380812Y-41471496D01*
X162398480Y-41431749D01*
X162394995Y-41406185D01*
X162366287Y-41399556D01*
X162360508Y-41406634D01*
X162072209Y-41406634D01*
X162066547Y-41331658D01*
X162093132Y-41237102D01*
X162177275Y-41153714D01*
X162199971Y-41137476D01*
X162344900Y-41066727D01*
X162508552Y-41021769D01*
X162617110Y-41004381D01*
X162764950Y-40975499D01*
X162838927Y-40947436D01*
X162853605Y-40912929D01*
X162823551Y-40864717D01*
X162807471Y-40847736D01*
X162691796Y-40765638D01*
X162522862Y-40677025D01*
X162333202Y-40596116D01*
X162155351Y-40537133D01*
X162021842Y-40514296D01*
X161951544Y-40518252D01*
X161729675Y-40586954D01*
X161549676Y-40727711D01*
X161428872Y-40923086D01*
X161384592Y-41155638D01*
X161100643Y-41155638D01*
X161107670Y-40983682D01*
X161186050Y-40741769D01*
X161207197Y-40697518D01*
X161239248Y-40599968D01*
X161225441Y-40562547D01*
X161202104Y-40558455D01*
X161103822Y-40523741D01*
X160972294Y-40465165D01*
X160902041Y-40425111D01*
X160724147Y-40256717D01*
X160595626Y-40031274D01*
X160523936Y-39772029D01*
X160519503Y-39610391D01*
X160805124Y-39610391D01*
X160807745Y-39672143D01*
X160844601Y-39866685D01*
X160914195Y-40041510D01*
X161002692Y-40158253D01*
X161093161Y-40216655D01*
X161247473Y-40244895D01*
X161359087Y-40194142D01*
X161776025Y-40194142D01*
X161786909Y-40251021D01*
X161854079Y-40232697D01*
X161878972Y-40206755D01*
X161867350Y-40128025D01*
X161862424Y-40120206D01*
X161824603Y-40087303D01*
X161791500Y-40143455D01*
X161776025Y-40194142D01*
X161359087Y-40194142D01*
X161396387Y-40177181D01*
X161462621Y-40116192D01*
X161501310Y-40028613D01*
X161495226Y-39894295D01*
X161487079Y-39786411D01*
X161513664Y-39691855D01*
X161597807Y-39608467D01*
X161620503Y-39592229D01*
X161765432Y-39521480D01*
X161929084Y-39476522D01*
X162037643Y-39459134D01*
X162185482Y-39430252D01*
X162259459Y-39402189D01*
X162274138Y-39367682D01*
X162244083Y-39319470D01*
X162228004Y-39302489D01*
X162112329Y-39220391D01*
X161943394Y-39131777D01*
X161753735Y-39050869D01*
X161575883Y-38991886D01*
X161442375Y-38969049D01*
X161372076Y-38973005D01*
X161150208Y-39041707D01*
X160970208Y-39182464D01*
X160849404Y-39377838D01*
X160805124Y-39610391D01*
X160519503Y-39610391D01*
X160516536Y-39502230D01*
X160580883Y-39245122D01*
X160692124Y-39060455D01*
X160874866Y-38873467D01*
X161082606Y-38744302D01*
X161100612Y-38736300D01*
X161199384Y-38675099D01*
X161239804Y-38618268D01*
X161238454Y-38606664D01*
X161231676Y-38582818D01*
X161582606Y-38582818D01*
X161619818Y-38688676D01*
X161706447Y-38727566D01*
X161815719Y-38749860D01*
X161986047Y-38824192D01*
X162174662Y-38934763D01*
X162353742Y-39064976D01*
X162495463Y-39198233D01*
X162510432Y-39215420D01*
X162621970Y-39367682D01*
X162634696Y-39385054D01*
X162675484Y-39511683D01*
X162632920Y-39600205D01*
X162507130Y-39655518D01*
X162363663Y-39690812D01*
X162211041Y-39729563D01*
X162071891Y-39765779D01*
X162166044Y-40010941D01*
X162206272Y-40109725D01*
X162264034Y-40206755D01*
X162270011Y-40216796D01*
X162360302Y-40284757D01*
X162510422Y-40345986D01*
X162637704Y-40405631D01*
X162811173Y-40518973D01*
X162980902Y-40657848D01*
X163126893Y-40803836D01*
X163209722Y-40912929D01*
X163229152Y-40938520D01*
X163267682Y-41043483D01*
X163266511Y-41059188D01*
X163209573Y-41149587D01*
X163084262Y-41214045D01*
X162914443Y-41239332D01*
X162848509Y-41242186D01*
X162761310Y-41267621D01*
X162729681Y-41332287D01*
X162746534Y-41431749D01*
X162749912Y-41451687D01*
X162818297Y-41641327D01*
X162851357Y-41721805D01*
X162892700Y-41803796D01*
X162937377Y-41892397D01*
X163036533Y-42016676D01*
X163174372Y-42129677D01*
X163222790Y-42165711D01*
X163397209Y-42317923D01*
X163535801Y-42473456D01*
X163586739Y-42554754D01*
X163623583Y-42613558D01*
X163645572Y-42719474D01*
X163644176Y-42725874D01*
X163615346Y-42775364D01*
X163544492Y-42816501D01*
X163413770Y-42856745D01*
X163205338Y-42903556D01*
X163070561Y-42931542D01*
X163227891Y-43150621D01*
X163337671Y-43290634D01*
X163504685Y-43473957D01*
X163680155Y-43641453D01*
X163842132Y-43772507D01*
X163968669Y-43846501D01*
X164016262Y-43863624D01*
X164238801Y-43908534D01*
X164424108Y-43873349D01*
X164585942Y-43752603D01*
X164738061Y-43540829D01*
X164878554Y-43219338D01*
X164967159Y-42812999D01*
X164997984Y-42334331D01*
X164971027Y-41785910D01*
X164886281Y-41170312D01*
X164743742Y-40490114D01*
X164696520Y-40300421D01*
X164522363Y-39691647D01*
X164329501Y-39143002D01*
X164121095Y-38660561D01*
X163900305Y-38250398D01*
X163670294Y-37918588D01*
X163434221Y-37671206D01*
X163195248Y-37514328D01*
X162964764Y-37442854D01*
X162674090Y-37435740D01*
X162386550Y-37510245D01*
X162117268Y-37659878D01*
X161881369Y-37878148D01*
X161693978Y-38158566D01*
X161657853Y-38235087D01*
X161595166Y-38426215D01*
X161582606Y-38582818D01*
X161231676Y-38582818D01*
X161212733Y-38516180D01*
X161161051Y-38369133D01*
X161092222Y-38191045D01*
X160944380Y-37823534D01*
X160633515Y-37794505D01*
X160504549Y-37785416D01*
X160058306Y-37788562D01*
X159527926Y-37837668D01*
X158913957Y-37932625D01*
X158216948Y-38073328D01*
X157437444Y-38259669D01*
X157281741Y-38301579D01*
X156575995Y-38491542D01*
X155633147Y-38768840D01*
X155283307Y-38874744D01*
X154576978Y-39082162D01*
X153941602Y-39257993D01*
X153364100Y-39404588D01*
X152831391Y-39524298D01*
X152330397Y-39619475D01*
X151848037Y-39692470D01*
X151371231Y-39745635D01*
X150886901Y-39781320D01*
X150381966Y-39801877D01*
X149843347Y-39809658D01*
X149686337Y-39810178D01*
X149328069Y-39809670D01*
X149040083Y-39804488D01*
X148803282Y-39792198D01*
X148598567Y-39770368D01*
X148406842Y-39736564D01*
X148209010Y-39688355D01*
X147985972Y-39623308D01*
X147718632Y-39538988D01*
X147217788Y-39358929D01*
X146525230Y-39053260D01*
X145796955Y-38672186D01*
X145040382Y-38220202D01*
X144992205Y-38188078D01*
X147235742Y-38188078D01*
X147242127Y-38229024D01*
X147319032Y-38326361D01*
X147485666Y-38412740D01*
X147745326Y-38490117D01*
X147761756Y-38494021D01*
X148050474Y-38552404D01*
X148279462Y-38578432D01*
X148438496Y-38571562D01*
X148517354Y-38531249D01*
X148523245Y-38516414D01*
X148529488Y-38487713D01*
X148935733Y-38487713D01*
X148945282Y-38581925D01*
X149035044Y-38716729D01*
X149155148Y-38787745D01*
X149329064Y-38839760D01*
X149508915Y-38860534D01*
X149650191Y-38841072D01*
X149739903Y-38790674D01*
X149891022Y-38650651D01*
X150023063Y-38467645D01*
X150110260Y-38273446D01*
X150110668Y-38272068D01*
X150159522Y-38018640D01*
X150178767Y-37717630D01*
X150167787Y-37413298D01*
X150125961Y-37149903D01*
X150052825Y-36955916D01*
X149923061Y-36775035D01*
X149761873Y-36655371D01*
X149585162Y-36604384D01*
X149408828Y-36629537D01*
X149248769Y-36738289D01*
X149228138Y-36760746D01*
X149192848Y-36814517D01*
X149137998Y-36898091D01*
X149112795Y-37015733D01*
X149146662Y-37096790D01*
X149233729Y-37124385D01*
X149368129Y-37081635D01*
X149499283Y-37048554D01*
X149639111Y-37090630D01*
X149738490Y-37207578D01*
X149752674Y-37243941D01*
X149787488Y-37430912D01*
X149790139Y-37658363D01*
X149762157Y-37886534D01*
X149705072Y-38075665D01*
X149627796Y-38224536D01*
X149530776Y-38331062D01*
X149400825Y-38376644D01*
X149208338Y-38379383D01*
X149083120Y-38374389D01*
X148991500Y-38382899D01*
X148950806Y-38417322D01*
X148935733Y-38487713D01*
X148529488Y-38487713D01*
X148544754Y-38417526D01*
X148572283Y-38247872D01*
X148603438Y-38026023D01*
X148635822Y-37770550D01*
X148667040Y-37500024D01*
X148694697Y-37233019D01*
X148716397Y-36988104D01*
X148727431Y-36814517D01*
X148725315Y-36685130D01*
X148704616Y-36606970D01*
X148668366Y-36563499D01*
X151250786Y-36563499D01*
X151276325Y-36693482D01*
X151378982Y-36873579D01*
X151559878Y-37106252D01*
X151674228Y-37242760D01*
X151755060Y-37349738D01*
X151789092Y-37420894D01*
X151785237Y-37476092D01*
X151752412Y-37535191D01*
X151690661Y-37660301D01*
X151671131Y-37717630D01*
X151627626Y-37845337D01*
X151573656Y-38055492D01*
X151535093Y-38261930D01*
X151518281Y-38435812D01*
X151529563Y-38548302D01*
X151593085Y-38657112D01*
X151712478Y-38734259D01*
X151854470Y-38725244D01*
X151873373Y-38717933D01*
X151935692Y-38686057D01*
X151980090Y-38636584D01*
X152015131Y-38550116D01*
X152049380Y-38407256D01*
X152091400Y-38188606D01*
X152102743Y-38127978D01*
X152139599Y-37938094D01*
X152170967Y-37786440D01*
X152191034Y-37701426D01*
X152228148Y-37632913D01*
X152293537Y-37626201D01*
X152372086Y-37702878D01*
X152455382Y-37857961D01*
X152531714Y-38004871D01*
X152651981Y-38169445D01*
X152785017Y-38300299D01*
X152916880Y-38388575D01*
X153033628Y-38425418D01*
X153121317Y-38401969D01*
X153166004Y-38309373D01*
X153166633Y-38301579D01*
X153147732Y-38200434D01*
X153094029Y-38048235D01*
X153015820Y-37874773D01*
X152991216Y-37825088D01*
X152849424Y-37509314D01*
X152752296Y-37219578D01*
X152688441Y-36915199D01*
X152646470Y-36555494D01*
X152639201Y-36475976D01*
X152608451Y-36229925D01*
X152568333Y-36065655D01*
X152544619Y-36025441D01*
X152955940Y-36025441D01*
X152998251Y-36139368D01*
X153075788Y-36207932D01*
X153172894Y-36214300D01*
X153273911Y-36141640D01*
X153345042Y-36095707D01*
X153485051Y-36081279D01*
X153499319Y-36082839D01*
X153577218Y-36103461D01*
X153642313Y-36155892D01*
X153711734Y-36259040D01*
X153802612Y-36431813D01*
X153832232Y-36491999D01*
X153919590Y-36699761D01*
X153967292Y-36892391D01*
X153988993Y-37120322D01*
X153992645Y-37236106D01*
X153977940Y-37456474D01*
X153924672Y-37602619D01*
X153826306Y-37687133D01*
X153676305Y-37722606D01*
X153544688Y-37754534D01*
X153455259Y-37835693D01*
X153450277Y-37948767D01*
X153535802Y-38078403D01*
X153564235Y-38104242D01*
X153729591Y-38185063D01*
X153918264Y-38189600D01*
X154109709Y-38124136D01*
X154283378Y-37994955D01*
X154418727Y-37808343D01*
X154494362Y-37598881D01*
X154533029Y-37292689D01*
X154515474Y-36955189D01*
X154446442Y-36608663D01*
X154330675Y-36275393D01*
X154172919Y-35977662D01*
X153977915Y-35737751D01*
X153972309Y-35732390D01*
X153846856Y-35630360D01*
X153718096Y-35576414D01*
X153696419Y-35573296D01*
X154798090Y-35573296D01*
X154798665Y-35821469D01*
X154815677Y-36221771D01*
X154909460Y-36887389D01*
X154957207Y-37102230D01*
X155008565Y-37292689D01*
X155024653Y-37352349D01*
X155092124Y-37528497D01*
X155165094Y-37643971D01*
X155249037Y-37712066D01*
X155393038Y-37766529D01*
X155513382Y-37754288D01*
X155581088Y-37668167D01*
X155591611Y-37514598D01*
X155540402Y-37300009D01*
X155498239Y-37170435D01*
X155466607Y-37055837D01*
X155460631Y-37005593D01*
X155474452Y-36999713D01*
X155559600Y-36980998D01*
X155692480Y-36959995D01*
X155766698Y-36950761D01*
X155874914Y-36952662D01*
X155952403Y-36998344D01*
X156041974Y-37105648D01*
X156107591Y-37187118D01*
X156258391Y-37334583D01*
X156385422Y-37398394D01*
X156483323Y-37375274D01*
X156521131Y-37329577D01*
X156555514Y-37219327D01*
X156553239Y-37205361D01*
X156515780Y-37108415D01*
X156435816Y-36939186D01*
X156317863Y-36706303D01*
X156166438Y-36418391D01*
X155986056Y-36084079D01*
X155781232Y-35711994D01*
X155556484Y-35310763D01*
X155473470Y-35182480D01*
X155325160Y-35032884D01*
X155174256Y-34971392D01*
X155028232Y-35000144D01*
X154894559Y-35121279D01*
X154887258Y-35131246D01*
X154845569Y-35200614D01*
X154818703Y-35283595D01*
X154803823Y-35400913D01*
X154798090Y-35573296D01*
X153696419Y-35573296D01*
X153539580Y-35550736D01*
X153424729Y-35545835D01*
X153223605Y-35575379D01*
X153081609Y-35666999D01*
X152982778Y-35828663D01*
X152964513Y-35882984D01*
X152955940Y-36025441D01*
X152544619Y-36025441D01*
X152512783Y-35971453D01*
X152435738Y-35935608D01*
X152331134Y-35946408D01*
X152244107Y-35986840D01*
X152196497Y-36048585D01*
X152144104Y-36116533D01*
X152093119Y-36321445D01*
X152092207Y-36596050D01*
X152142423Y-36934826D01*
X152145209Y-36950497D01*
X152139220Y-36985847D01*
X152097455Y-36972880D01*
X152008726Y-36905295D01*
X151861843Y-36776787D01*
X151670615Y-36616569D01*
X151496894Y-36502927D01*
X151369169Y-36463761D01*
X151338603Y-36475329D01*
X151282358Y-36496616D01*
X151250786Y-36563499D01*
X148668366Y-36563499D01*
X148662365Y-36556303D01*
X148568208Y-36514092D01*
X148483254Y-36557960D01*
X148407366Y-36692697D01*
X148338044Y-36921116D01*
X148324638Y-36980870D01*
X148284198Y-37208658D01*
X148248805Y-37472125D01*
X148224888Y-37725570D01*
X148210589Y-37922597D01*
X148188230Y-38082166D01*
X148144987Y-38170305D01*
X148064731Y-38200528D01*
X147931334Y-38186346D01*
X147728664Y-38141270D01*
X147719299Y-38139154D01*
X147546323Y-38114694D01*
X147390925Y-38116323D01*
X147278825Y-38141599D01*
X147235742Y-38188078D01*
X144992205Y-38188078D01*
X144262932Y-37701802D01*
X143472024Y-37121482D01*
X143178361Y-36886482D01*
X144531560Y-36886482D01*
X144543591Y-36968200D01*
X144626607Y-37134613D01*
X144771983Y-37293102D01*
X144960163Y-37419353D01*
X144973623Y-37425957D01*
X145145835Y-37494079D01*
X145316595Y-37540209D01*
X145317550Y-37540383D01*
X145386971Y-37553853D01*
X145439856Y-37557304D01*
X145482572Y-37538964D01*
X145521484Y-37487060D01*
X145562957Y-37389822D01*
X145612043Y-37239501D01*
X146036895Y-37239501D01*
X146041648Y-37514568D01*
X146095997Y-37730109D01*
X146203744Y-37905232D01*
X146296602Y-37997442D01*
X146399260Y-38041079D01*
X146553245Y-38051521D01*
X146681265Y-38044450D01*
X146854719Y-37998522D01*
X146996415Y-37900356D01*
X147116184Y-37738941D01*
X147223855Y-37503265D01*
X147329259Y-37182319D01*
X147339643Y-37146662D01*
X147419506Y-36849973D01*
X147463386Y-36629993D01*
X147472039Y-36475329D01*
X147446221Y-36374586D01*
X147386687Y-36316371D01*
X147380683Y-36313277D01*
X147299403Y-36300329D01*
X147225120Y-36352096D01*
X147153224Y-36476373D01*
X147079109Y-36680957D01*
X146998165Y-36973643D01*
X146951813Y-37150094D01*
X146893572Y-37354866D01*
X146843067Y-37514598D01*
X146807674Y-37604848D01*
X146763453Y-37659526D01*
X146662527Y-37708383D01*
X146559621Y-37702199D01*
X146492430Y-37637115D01*
X146485395Y-37615564D01*
X146465288Y-37460404D01*
X146468356Y-37241867D01*
X146493342Y-36984879D01*
X146538987Y-36714367D01*
X146581881Y-36455564D01*
X146586419Y-36266192D01*
X146549190Y-36155788D01*
X146469683Y-36119962D01*
X146371377Y-36151830D01*
X146263938Y-36272936D01*
X146172289Y-36478468D01*
X146099110Y-36762097D01*
X146047083Y-37117496D01*
X146036895Y-37239501D01*
X145612043Y-37239501D01*
X145613357Y-37235477D01*
X145679050Y-37012252D01*
X145766401Y-36708377D01*
X145795074Y-36607750D01*
X145864156Y-36349101D01*
X145903722Y-36166492D01*
X145915908Y-36048585D01*
X145902850Y-35984042D01*
X145857063Y-35936537D01*
X145742679Y-35854673D01*
X145594603Y-35769867D01*
X145449075Y-35703298D01*
X145214852Y-35638827D01*
X145032320Y-35650295D01*
X144905649Y-35735772D01*
X144839007Y-35893326D01*
X144836563Y-36121025D01*
X144840900Y-36159369D01*
X144847608Y-36292002D01*
X144826593Y-36365909D01*
X144771176Y-36410674D01*
X144748501Y-36424681D01*
X144641268Y-36542694D01*
X144562309Y-36709822D01*
X144531560Y-36886482D01*
X143178361Y-36886482D01*
X142675077Y-36483735D01*
X142489600Y-36326934D01*
X142285094Y-36149155D01*
X142103908Y-35986691D01*
X141958753Y-35851180D01*
X141862340Y-35754261D01*
X141827377Y-35707570D01*
X141827578Y-35707104D01*
X141879125Y-35700234D01*
X142011459Y-35694266D01*
X142209748Y-35689558D01*
X142459162Y-35686470D01*
X142744868Y-35685361D01*
X142758340Y-35685359D01*
X143102939Y-35683314D01*
X143358458Y-35677142D01*
X143532080Y-35666403D01*
X143630986Y-35650662D01*
X143662358Y-35629480D01*
X143643433Y-35576480D01*
X143586002Y-35450895D01*
X143497111Y-35268349D01*
X143383893Y-35043473D01*
X143253479Y-34790894D01*
X143129609Y-34550107D01*
X143019700Y-34328961D01*
X142935530Y-34151303D01*
X142883676Y-34031038D01*
X142870721Y-33982068D01*
X142877150Y-33980296D01*
X142946539Y-34002119D01*
X143071200Y-34061265D01*
X143229541Y-34147762D01*
X143318044Y-34197941D01*
X143916138Y-34501008D01*
X144583194Y-34785009D01*
X145295879Y-35042108D01*
X146030859Y-35264464D01*
X146764800Y-35444242D01*
X147474368Y-35573603D01*
X147548698Y-35583979D01*
X147991546Y-35627661D01*
X148485297Y-35651016D01*
X149000829Y-35654315D01*
X149509025Y-35637828D01*
X149980765Y-35601825D01*
X150386928Y-35546575D01*
X150544762Y-35517734D01*
X150958499Y-35432887D01*
X151335978Y-35338278D01*
X151701121Y-35226099D01*
X152077846Y-35088543D01*
X152366199Y-34969108D01*
X156433184Y-34969108D01*
X156441902Y-35064770D01*
X156473519Y-35210495D01*
X156529810Y-35427695D01*
X156599604Y-35685760D01*
X156734276Y-36155902D01*
X156854484Y-36534319D01*
X156961081Y-36823423D01*
X157054920Y-37025623D01*
X157136855Y-37143332D01*
X157166344Y-37171337D01*
X157242788Y-37219327D01*
X157311098Y-37262211D01*
X157438103Y-37261980D01*
X157541385Y-37170247D01*
X157574986Y-37105597D01*
X157587783Y-37025876D01*
X157576465Y-36908281D01*
X157541009Y-36724996D01*
X157539530Y-36717957D01*
X157506407Y-36542132D01*
X157486326Y-36400099D01*
X157483587Y-36322024D01*
X157488028Y-36312251D01*
X157550470Y-36260320D01*
X157664122Y-36196476D01*
X157801885Y-36132532D01*
X157936658Y-36080299D01*
X158041342Y-36051589D01*
X158088837Y-36058214D01*
X158124468Y-36145865D01*
X158226746Y-36336021D01*
X158353568Y-36522832D01*
X158484464Y-36677659D01*
X158598962Y-36771863D01*
X158760001Y-36831613D01*
X158874751Y-36811297D01*
X158940520Y-36713515D01*
X158956260Y-36541765D01*
X158920922Y-36299545D01*
X158833454Y-35990352D01*
X158809556Y-35916679D01*
X158729143Y-35647075D01*
X158648949Y-35351485D01*
X158583251Y-35081749D01*
X158573046Y-35036631D01*
X158505974Y-34767506D01*
X158443926Y-34579923D01*
X158380491Y-34461396D01*
X158309259Y-34399437D01*
X158223820Y-34381559D01*
X158200703Y-34382322D01*
X158047435Y-34437227D01*
X157935374Y-34576153D01*
X157866607Y-34795213D01*
X157843220Y-35090519D01*
X157843220Y-35437729D01*
X157602248Y-35537873D01*
X157505045Y-35576837D01*
X157396879Y-35615587D01*
X157350367Y-35625472D01*
X157345986Y-35618236D01*
X157308623Y-35547068D01*
X157242873Y-35417584D01*
X157159425Y-35250760D01*
X157135421Y-35203026D01*
X157042750Y-35027939D01*
X156960747Y-34885941D01*
X156904835Y-34804087D01*
X156867230Y-34769729D01*
X156733316Y-34720745D01*
X156591764Y-34744163D01*
X156480796Y-34837015D01*
X156477337Y-34842332D01*
X156445588Y-34902099D01*
X156433184Y-34969108D01*
X152366199Y-34969108D01*
X152490073Y-34917800D01*
X152961720Y-34706063D01*
X153227565Y-34585382D01*
X154060805Y-34234366D01*
X154845376Y-33948295D01*
X155594325Y-33722690D01*
X156320701Y-33553072D01*
X156529623Y-33514602D01*
X156774671Y-33480088D01*
X157030847Y-33458008D01*
X157326581Y-33446055D01*
X157690305Y-33441923D01*
X157806448Y-33442079D01*
X158249647Y-33453474D01*
X158618660Y-33484266D01*
X158930541Y-33537149D01*
X159202350Y-33614814D01*
X159451141Y-33719956D01*
X159666729Y-33826236D01*
X160476076Y-35830228D01*
X160599270Y-36135123D01*
X160761987Y-36537389D01*
X160763759Y-36541765D01*
X160912127Y-36908060D01*
G37*
D12*
%TO.C,D8*%
X119062500Y-74873629D02*
X119062500Y-73490000D01*
X120388871Y-76200000D02*
G75*
G02*
X117736129Y-76200000I-1326371J0D01*
G01*
X117736129Y-76200000D02*
G75*
G02*
X120388871Y-76200000I1326371J0D01*
G01*
%TO.C,D3*%
X138112500Y-36773629D02*
X138112500Y-35390000D01*
X139438871Y-38100000D02*
G75*
G02*
X136786129Y-38100000I-1326371J0D01*
G01*
X136786129Y-38100000D02*
G75*
G02*
X139438871Y-38100000I1326371J0D01*
G01*
%TO.C,D1*%
X100012500Y-36773629D02*
X100012500Y-35390000D01*
X101338871Y-38100000D02*
G75*
G02*
X98686129Y-38100000I-1326371J0D01*
G01*
X98686129Y-38100000D02*
G75*
G02*
X101338871Y-38100000I1326371J0D01*
G01*
%TO.C,D6*%
X138112500Y-55982379D02*
X138112500Y-54598750D01*
X139438871Y-57308750D02*
G75*
G02*
X136786129Y-57308750I-1326371J0D01*
G01*
X136786129Y-57308750D02*
G75*
G02*
X139438871Y-57308750I1326371J0D01*
G01*
%TO.C,D4*%
X100012500Y-55982379D02*
X100012500Y-54598750D01*
X101338871Y-57308750D02*
G75*
G02*
X98686129Y-57308750I-1326371J0D01*
G01*
X98686129Y-57308750D02*
G75*
G02*
X101338871Y-57308750I1326371J0D01*
G01*
%TO.C,D2*%
X119062500Y-36932379D02*
X119062500Y-35548750D01*
X120388871Y-38258750D02*
G75*
G02*
X117736129Y-38258750I-1326371J0D01*
G01*
X117736129Y-38258750D02*
G75*
G02*
X120388871Y-38258750I1326371J0D01*
G01*
%TO.C,D7*%
X100012500Y-74873629D02*
X100012500Y-73490000D01*
X101338871Y-76200000D02*
G75*
G02*
X98686129Y-76200000I-1326371J0D01*
G01*
X98686129Y-76200000D02*
G75*
G02*
X101338871Y-76200000I1326371J0D01*
G01*
%TO.C,D10*%
X100012500Y-93923629D02*
X100012500Y-92540000D01*
X101338871Y-95250000D02*
G75*
G02*
X98686129Y-95250000I-1326371J0D01*
G01*
X98686129Y-95250000D02*
G75*
G02*
X101338871Y-95250000I1326371J0D01*
G01*
%TO.C,D12*%
X138112500Y-94082379D02*
X138112500Y-92698750D01*
X139438871Y-95408750D02*
G75*
G02*
X136786129Y-95408750I-1326371J0D01*
G01*
X136786129Y-95408750D02*
G75*
G02*
X139438871Y-95408750I1326371J0D01*
G01*
%TO.C,D5*%
X119062500Y-55823629D02*
X119062500Y-54440000D01*
X120388871Y-57150000D02*
G75*
G02*
X117736129Y-57150000I-1326371J0D01*
G01*
X117736129Y-57150000D02*
G75*
G02*
X120388871Y-57150000I1326371J0D01*
G01*
%TO.C,D11*%
X119062500Y-94082379D02*
X119062500Y-92698750D01*
X120388871Y-95408750D02*
G75*
G02*
X117736129Y-95408750I-1326371J0D01*
G01*
X117736129Y-95408750D02*
G75*
G02*
X120388871Y-95408750I1326371J0D01*
G01*
%TO.C,D9*%
X138112500Y-75032379D02*
X138112500Y-73648750D01*
X139438871Y-76358750D02*
G75*
G02*
X136786129Y-76358750I-1326371J0D01*
G01*
X136786129Y-76358750D02*
G75*
G02*
X139438871Y-76358750I1326371J0D01*
G01*
%TD*%
M02*
