%TF.GenerationSoftware,KiCad,Pcbnew,9.0.2*%
%TF.CreationDate,2025-07-31T17:55:32-05:00*%
%TF.ProjectId,highway,68696768-7761-4792-9e6b-696361645f70,rev?*%
%TF.SameCoordinates,Original*%
%TF.FileFunction,Copper,L2,Bot*%
%TF.FilePolarity,Positive*%
%FSLAX46Y46*%
G04 Gerber Fmt 4.6, Leading zero omitted, Abs format (unit mm)*
G04 Created by KiCad (PCBNEW 9.0.2) date 2025-07-31 17:55:32*
%MOMM*%
%LPD*%
G01*
G04 APERTURE LIST*
G04 Aperture macros list*
%AMRoundRect*
0 Rectangle with rounded corners*
0 $1 Rounding radius*
0 $2 $3 $4 $5 $6 $7 $8 $9 X,Y pos of 4 corners*
0 Add a 4 corners polygon primitive as box body*
4,1,4,$2,$3,$4,$5,$6,$7,$8,$9,$2,$3,0*
0 Add four circle primitives for the rounded corners*
1,1,$1+$1,$2,$3*
1,1,$1+$1,$4,$5*
1,1,$1+$1,$6,$7*
1,1,$1+$1,$8,$9*
0 Add four rect primitives between the rounded corners*
20,1,$1+$1,$2,$3,$4,$5,0*
20,1,$1+$1,$4,$5,$6,$7,0*
20,1,$1+$1,$6,$7,$8,$9,0*
20,1,$1+$1,$8,$9,$2,$3,0*%
G04 Aperture macros list end*
%TA.AperFunction,ComponentPad*%
%ADD10C,2.200000*%
%TD*%
%TA.AperFunction,ComponentPad*%
%ADD11R,1.700000X1.700000*%
%TD*%
%TA.AperFunction,ComponentPad*%
%ADD12C,1.700000*%
%TD*%
%TA.AperFunction,ComponentPad*%
%ADD13C,1.524000*%
%TD*%
%TA.AperFunction,ComponentPad*%
%ADD14RoundRect,0.250000X0.550000X-0.550000X0.550000X0.550000X-0.550000X0.550000X-0.550000X-0.550000X0*%
%TD*%
%TA.AperFunction,ComponentPad*%
%ADD15C,1.600000*%
%TD*%
%TA.AperFunction,ViaPad*%
%ADD16C,0.600000*%
%TD*%
%TA.AperFunction,Conductor*%
%ADD17C,0.200000*%
%TD*%
G04 APERTURE END LIST*
D10*
%TO.P,SW5,1,1*%
%TO.N,column 1*%
X112077500Y-52070000D03*
%TO.P,SW5,2,2*%
%TO.N,Net-(D5-A)*%
X105727500Y-54610000D03*
%TD*%
%TO.P,SW12,1,1*%
%TO.N,column 2*%
X131127500Y-90170000D03*
%TO.P,SW12,2,2*%
%TO.N,Net-(D12-A)*%
X124777500Y-92710000D03*
%TD*%
D11*
%TO.P,motion1,1,Pin_1*%
%TO.N,+3.3V*%
X134820000Y-25700000D03*
D12*
%TO.P,motion1,2,Pin_2*%
%TO.N,Net-(U1-GPIO21{slash}D6{slash}TX)*%
X137360000Y-25700000D03*
%TO.P,motion1,3,Pin_3*%
%TO.N,GND*%
X139900000Y-25700000D03*
%TD*%
D10*
%TO.P,SW10,1,1*%
%TO.N,column 0*%
X93027500Y-90170000D03*
%TO.P,SW10,2,2*%
%TO.N,Net-(D10-A)*%
X86677500Y-92710000D03*
%TD*%
%TO.P,SW6,1,1*%
%TO.N,column 2*%
X131127500Y-52070000D03*
%TO.P,SW6,2,2*%
%TO.N,Net-(D6-A)*%
X124777500Y-54610000D03*
%TD*%
%TO.P,SW2,1,1*%
%TO.N,column 1*%
X112077500Y-33020000D03*
%TO.P,SW2,2,2*%
%TO.N,Net-(D2-A)*%
X105727500Y-35560000D03*
%TD*%
%TO.P,SW4,1,1*%
%TO.N,column 0*%
X93027500Y-52070000D03*
%TO.P,SW4,2,2*%
%TO.N,Net-(D4-A)*%
X86677500Y-54610000D03*
%TD*%
%TO.P,SW9,1,1*%
%TO.N,column 2*%
X131127500Y-71120000D03*
%TO.P,SW9,2,2*%
%TO.N,Net-(D9-A)*%
X124777500Y-73660000D03*
%TD*%
%TO.P,SW1,1,1*%
%TO.N,column 0*%
X93027500Y-33020000D03*
%TO.P,SW1,2,2*%
%TO.N,Net-(D1-A)*%
X86677500Y-35560000D03*
%TD*%
%TO.P,SW7,1,1*%
%TO.N,column 0*%
X93027500Y-71120000D03*
%TO.P,SW7,2,2*%
%TO.N,Net-(D7-A)*%
X86677500Y-73660000D03*
%TD*%
%TO.P,SW3,1,1*%
%TO.N,column 2*%
X131127500Y-33020000D03*
%TO.P,SW3,2,2*%
%TO.N,Net-(D3-A)*%
X124777500Y-35560000D03*
%TD*%
%TO.P,SW8,1,1*%
%TO.N,column 1*%
X112077500Y-71120000D03*
%TO.P,SW8,2,2*%
%TO.N,Net-(D8-A)*%
X105727500Y-73660000D03*
%TD*%
D13*
%TO.P,U1,1,GPIO2/A0/D0*%
%TO.N,column 0*%
X165901500Y-75380000D03*
%TO.P,U1,2,GPIO3/A1/D1*%
%TO.N,column 1*%
X163361500Y-75380000D03*
%TO.P,U1,3,GPIO4/A2/D2*%
%TO.N,column 2*%
X160821500Y-75380000D03*
%TO.P,U1,4,GPIO5/A3/D3*%
%TO.N,unconnected-(U1-GPIO5{slash}A3{slash}D3-Pad4)*%
X158281500Y-75380000D03*
%TO.P,U1,5,GPIO6/D4/SDA*%
%TO.N,SDA*%
X155741500Y-75380000D03*
%TO.P,U1,6,GPIO7/D5/SCL*%
%TO.N,SCL*%
X153201500Y-75380000D03*
%TO.P,U1,7,GPIO21/D6/TX*%
%TO.N,Net-(U1-GPIO21{slash}D6{slash}TX)*%
X150661500Y-75380000D03*
%TO.P,U1,8,GPIO20/D7/RX*%
%TO.N,row 0*%
X150661500Y-90620000D03*
%TO.P,U1,9,GPIO8/D8/SCK*%
%TO.N,row 1*%
X153201500Y-90620000D03*
%TO.P,U1,10,GPIO9/D9/MISO*%
%TO.N,row 2*%
X155741500Y-90620000D03*
%TO.P,U1,11,GPIO10/D10/MOSI*%
%TO.N,row 3*%
X158281500Y-90620000D03*
%TO.P,U1,12,VCC_3V3*%
%TO.N,+3.3V*%
X160821500Y-90620000D03*
%TO.P,U1,13,GND*%
%TO.N,GND*%
X163361500Y-90620000D03*
%TO.P,U1,14,VBUS*%
%TO.N,unconnected-(U1-VBUS-Pad14)*%
X165901500Y-90620000D03*
%TD*%
D10*
%TO.P,SW11,1,1*%
%TO.N,column 1*%
X112077500Y-90170000D03*
%TO.P,SW11,2,2*%
%TO.N,Net-(D11-A)*%
X105727500Y-92710000D03*
%TD*%
D11*
%TO.P,OLED1,1,Pin_1*%
%TO.N,SDA*%
X83800000Y-18990000D03*
D12*
%TO.P,OLED1,2,Pin_2*%
%TO.N,SCL*%
X83800000Y-21530000D03*
%TO.P,OLED1,3,Pin_3*%
%TO.N,+3.3V*%
X83800000Y-24070000D03*
%TO.P,OLED1,4,Pin_4*%
%TO.N,GND*%
X83800000Y-26610000D03*
%TD*%
D14*
%TO.P,D8,1,K*%
%TO.N,row 2*%
X119062500Y-76200000D03*
D15*
%TO.P,D8,2,A*%
%TO.N,Net-(D8-A)*%
X119062500Y-72390000D03*
%TD*%
D14*
%TO.P,D3,1,K*%
%TO.N,row 0*%
X138112500Y-38100000D03*
D15*
%TO.P,D3,2,A*%
%TO.N,Net-(D3-A)*%
X138112500Y-34290000D03*
%TD*%
D14*
%TO.P,D1,1,K*%
%TO.N,row 0*%
X100012500Y-38100000D03*
D15*
%TO.P,D1,2,A*%
%TO.N,Net-(D1-A)*%
X100012500Y-34290000D03*
%TD*%
D14*
%TO.P,D6,1,K*%
%TO.N,row 1*%
X138112500Y-57308750D03*
D15*
%TO.P,D6,2,A*%
%TO.N,Net-(D6-A)*%
X138112500Y-53498750D03*
%TD*%
D14*
%TO.P,D4,1,K*%
%TO.N,row 1*%
X100012500Y-57308750D03*
D15*
%TO.P,D4,2,A*%
%TO.N,Net-(D4-A)*%
X100012500Y-53498750D03*
%TD*%
D14*
%TO.P,D2,1,K*%
%TO.N,row 0*%
X119062500Y-38258750D03*
D15*
%TO.P,D2,2,A*%
%TO.N,Net-(D2-A)*%
X119062500Y-34448750D03*
%TD*%
D14*
%TO.P,D7,1,K*%
%TO.N,row 2*%
X100012500Y-76200000D03*
D15*
%TO.P,D7,2,A*%
%TO.N,Net-(D7-A)*%
X100012500Y-72390000D03*
%TD*%
D14*
%TO.P,D10,1,K*%
%TO.N,row 3*%
X100012500Y-95250000D03*
D15*
%TO.P,D10,2,A*%
%TO.N,Net-(D10-A)*%
X100012500Y-91440000D03*
%TD*%
D14*
%TO.P,D12,1,K*%
%TO.N,row 3*%
X138112500Y-95408750D03*
D15*
%TO.P,D12,2,A*%
%TO.N,Net-(D12-A)*%
X138112500Y-91598750D03*
%TD*%
D14*
%TO.P,D5,1,K*%
%TO.N,row 1*%
X119062500Y-57150000D03*
D15*
%TO.P,D5,2,A*%
%TO.N,Net-(D5-A)*%
X119062500Y-53340000D03*
%TD*%
D14*
%TO.P,D11,1,K*%
%TO.N,row 3*%
X119062500Y-95408750D03*
D15*
%TO.P,D11,2,A*%
%TO.N,Net-(D11-A)*%
X119062500Y-91598750D03*
%TD*%
D14*
%TO.P,D9,1,K*%
%TO.N,row 2*%
X138112500Y-76358750D03*
D15*
%TO.P,D9,2,A*%
%TO.N,Net-(D9-A)*%
X138112500Y-72548750D03*
%TD*%
D16*
%TO.N,column 2*%
X148800000Y-87900000D03*
X144900000Y-96400000D03*
X136600000Y-100100000D03*
%TO.N,column 1*%
X115700000Y-103700000D03*
%TO.N,column 0*%
X97200000Y-103900000D03*
%TO.N,row 2*%
X153100000Y-87000000D03*
X143000000Y-77800000D03*
%TO.N,SCL*%
X146700000Y-85500000D03*
%TO.N,+3.3V*%
X140700000Y-31700000D03*
%TO.N,row 1*%
X142100000Y-61300000D03*
%TD*%
D17*
%TO.N,column 2*%
X148800000Y-92500000D02*
X148800000Y-87900000D01*
X144900000Y-96400000D02*
X148800000Y-92500000D01*
X133700000Y-100100000D02*
X136600000Y-100100000D01*
X131127500Y-90170000D02*
X131127500Y-97527500D01*
X131127500Y-97527500D02*
X133700000Y-100100000D01*
%TO.N,column 1*%
X112077500Y-100077500D02*
X115700000Y-103700000D01*
X115700000Y-103700000D02*
X115600000Y-103600000D01*
X112077500Y-90170000D02*
X112077500Y-100077500D01*
%TO.N,SCL*%
X77900000Y-27430000D02*
X77900000Y-105000000D01*
X78900000Y-106000000D02*
X77900000Y-105000000D01*
X132300000Y-106000000D02*
X78900000Y-106000000D01*
%TO.N,column 0*%
X93027500Y-99727500D02*
X97200000Y-103900000D01*
X93027500Y-90170000D02*
X93027500Y-99727500D01*
%TO.N,row 2*%
X152200000Y-87000000D02*
X153100000Y-87000000D01*
X143000000Y-77800000D02*
X152200000Y-87000000D01*
%TO.N,column 0*%
X93027500Y-71120000D02*
X93027500Y-90170000D01*
%TO.N,SCL*%
X83800000Y-21530000D02*
X77900000Y-27430000D01*
X132300000Y-106000000D02*
X146700000Y-91600000D01*
X146700000Y-91600000D02*
X146700000Y-85500000D01*
%TO.N,SDA*%
X83800000Y-18990000D02*
X75600000Y-27190000D01*
X154400000Y-76721500D02*
X155741500Y-75380000D01*
X75600000Y-27190000D02*
X75600000Y-107100000D01*
X75600000Y-107100000D02*
X77500000Y-109000000D01*
X77500000Y-109000000D02*
X139400000Y-109000000D01*
X139400000Y-109000000D02*
X154400000Y-94000000D01*
X154400000Y-94000000D02*
X154400000Y-76721500D01*
%TO.N,GND*%
X163361500Y-90620000D02*
X162298500Y-89557000D01*
X162298500Y-48098500D02*
X139900000Y-25700000D01*
X162298500Y-89557000D02*
X162298500Y-48098500D01*
%TO.N,+3.3V*%
X140700000Y-31700000D02*
X157155500Y-48155500D01*
X157155500Y-48155500D02*
X157155500Y-86954000D01*
X157155500Y-86954000D02*
X160821500Y-90620000D01*
%TO.N,row 1*%
X142100000Y-79518500D02*
X142100000Y-61300000D01*
X153201500Y-90620000D02*
X142100000Y-79518500D01*
%TO.N,column 0*%
X93027500Y-52070000D02*
X93027500Y-71120000D01*
X93027500Y-33020000D02*
X93027500Y-52070000D01*
%TO.N,column 1*%
X112077500Y-52070000D02*
X112077500Y-71120000D01*
X112077500Y-71120000D02*
X112077500Y-90170000D01*
X112077500Y-33020000D02*
X112077500Y-52070000D01*
%TO.N,column 2*%
X131127500Y-52070000D02*
X131127500Y-71120000D01*
X131127500Y-33020000D02*
X131127500Y-52070000D01*
X131127500Y-71120000D02*
X131127500Y-90170000D01*
%TO.N,GND*%
X87200000Y-27300000D02*
X86510000Y-26610000D01*
X138300000Y-27300000D02*
X87200000Y-27300000D01*
X139900000Y-25700000D02*
X138300000Y-27300000D01*
X86510000Y-26610000D02*
X83800000Y-26610000D01*
%TO.N,+3.3V*%
X85430000Y-25700000D02*
X134820000Y-25700000D01*
X83800000Y-24070000D02*
X85430000Y-25700000D01*
%TD*%
M02*
